<?xml version="1.0" encoding="UTF-8"?>
<svg xmlns="http://www.w3.org/2000/svg" xmlns:xlink="http://www.w3.org/1999/xlink" viewBox="0 0 48 48" width="48px" height="48px">
<g id="surface43948790">
<path style=" stroke:none;fill-rule:nonzero;fill:rgb(80.000001%,80.000001%,80.000001%);fill-opacity:1;" d="M 19.332031 4 L 18.351562 9.046875 C 16.703125 9.667969 15.191406 10.539062 13.863281 11.628906 L 9.015625 9.957031 L 4.34375 18.042969 L 8.226562 21.417969 C 8.078125 22.335938 8 23.183594 8 24 C 8 24.816406 8.078125 25.664062 8.226562 26.582031 L 8.226562 26.585938 L 4.34375 29.960938 L 9.015625 38.042969 L 13.859375 36.375 C 15.1875 37.464844 16.703125 38.332031 18.351562 38.953125 L 19.332031 44 L 28.667969 44 L 29.648438 38.953125 C 31.296875 38.332031 32.808594 37.460938 34.136719 36.371094 L 38.984375 38.042969 L 43.652344 29.960938 L 39.773438 26.582031 C 39.921875 25.664062 40 24.816406 40 24 C 40 23.183594 39.921875 22.335938 39.773438 21.421875 L 39.773438 21.417969 L 43.65625 18.039062 L 38.984375 9.957031 L 34.140625 11.625 C 32.8125 10.535156 31.296875 9.667969 29.648438 9.046875 L 28.667969 4 Z M 22.628906 8 L 25.371094 8 L 26.148438 12 L 28.234375 12.789062 C 29.492188 13.261719 30.621094 13.914062 31.601562 14.71875 L 33.328125 16.132812 L 37.171875 14.8125 L 38.542969 17.183594 L 35.472656 19.855469 L 35.824219 22.054688 L 35.824219 22.058594 C 35.945312 22.808594 36 23.4375 36 24 C 36 24.5625 35.945312 25.191406 35.824219 25.941406 L 35.46875 28.140625 L 38.539062 30.8125 L 37.167969 33.1875 L 33.328125 31.863281 L 31.597656 33.28125 C 30.617188 34.085938 29.492188 34.738281 28.234375 35.210938 L 28.230469 35.210938 L 26.144531 36 L 25.367188 40 L 22.628906 40 L 21.851562 36 L 19.765625 35.210938 C 18.507812 34.738281 17.378906 34.085938 16.398438 33.28125 L 14.671875 31.867188 L 10.828125 33.1875 L 9.457031 30.816406 L 12.53125 28.140625 L 12.175781 25.949219 L 12.175781 25.945312 C 12.054688 25.191406 12 24.5625 12 24 C 12 23.4375 12.054688 22.808594 12.175781 22.058594 L 12.53125 19.859375 L 9.457031 17.1875 L 10.828125 14.8125 L 14.671875 16.136719 L 16.398438 14.71875 C 17.378906 13.914062 18.507812 13.261719 19.765625 12.789062 L 21.851562 12 Z M 24 16 C 19.605469 16 16 19.605469 16 24 C 16 28.394531 19.605469 32 24 32 C 28.394531 32 32 28.394531 32 24 C 32 19.605469 28.394531 16 24 16 Z M 24 20 C 26.222656 20 28 21.777344 28 24 C 28 26.222656 26.222656 28 24 28 C 21.777344 28 20 26.222656 20 24 C 20 21.777344 21.777344 20 24 20 Z M 24 20 "/>
</g>
</svg>
